<svg xmlns="http://www.w3.org/2000/svg" width="155.465" height="84.21" viewBox="0 0 155.465 84.21">
  <path id="Icon" d="M51.822,39.889H32.389V20.455H19.433V39.889H0V52.844H19.433V72.277H32.389V52.844H51.822ZM116.6,46.366A19.433,19.433,0,1,0,110.7,8.407a31.963,31.963,0,0,1,5.83,18.526,32.592,32.592,0,0,1-5.83,18.526A19.366,19.366,0,0,0,116.6,46.366Zm-32.389,0A19.433,19.433,0,1,0,64.777,26.933,19.352,19.352,0,0,0,84.21,46.366Zm42.882,13.992c5.377,4.729,8.939,10.753,8.939,18.4V91.71h19.433V78.755C155.465,68.779,140.113,62.625,127.093,60.358ZM84.21,59.322c-12.955,0-38.866,6.478-38.866,19.433V91.71h77.733V78.755C123.077,65.8,97.166,59.322,84.21,59.322Z" transform="translate(0 -7.5)" fill="#fff"/>
</svg>
