<svg xmlns="http://www.w3.org/2000/svg" width="28.656" height="18.235" viewBox="0 0 28.656 18.235">
  <path id="Icon" d="M21.038,15.315a3.908,3.908,0,1,0-3.908-3.908A3.891,3.891,0,0,0,21.038,15.315Zm-10.42,0A3.908,3.908,0,1,0,6.71,11.408,3.891,3.891,0,0,0,10.618,15.315Zm0,2.605c-3.035,0-9.118,1.524-9.118,4.559v3.256H19.735V22.479C19.735,19.444,13.653,17.92,10.618,17.92Zm10.42,0c-.378,0-.808.026-1.263.065a5.5,5.5,0,0,1,2.566,4.494v3.256h7.815V22.479C30.156,19.444,24.073,17.92,21.038,17.92Z" transform="translate(-1.5 -7.5)" fill="#fff"/>
</svg>
