<svg xmlns="http://www.w3.org/2000/svg" width="31.172" height="23.755" viewBox="0 0 31.172 23.755">
  <path id="Icon" d="M30.741,17.427,20.35,27.818a1.487,1.487,0,0,1-2.536-1.051V20.829H9.4a1.481,1.481,0,0,1-1.484-1.484V13.407A1.481,1.481,0,0,1,9.4,11.922h8.412V5.984A1.488,1.488,0,0,1,20.35,4.933L30.741,15.324A1.5,1.5,0,0,1,30.741,17.427ZM11.876,27.509V25.035a.744.744,0,0,0-.742-.742h-5.2a1.977,1.977,0,0,1-1.979-1.979V10.438A1.977,1.977,0,0,1,5.938,8.458h5.2a.744.744,0,0,0,.742-.742V5.242a.744.744,0,0,0-.742-.742h-5.2A5.939,5.939,0,0,0,0,10.438V22.313a5.939,5.939,0,0,0,5.938,5.938h5.2A.744.744,0,0,0,11.876,27.509Z" transform="translate(0 -4.499)" fill="#35747a"/>
</svg>
